<?xml version="1.0" encoding="UTF-8"?>
<!DOCTYPE svg PUBLIC "-//W3C//DTD SVG 1.1//EN" "http://www.w3.org/Graphics/SVG/1.1/DTD/svg11.dtd">
<!-- Creator: CorelDRAW 2020 (64-Bit) -->
<svg xmlns="http://www.w3.org/2000/svg" xml:space="preserve" width="243.84mm" height="708.107mm" version="1.1" style="shape-rendering:geometricPrecision; text-rendering:geometricPrecision; image-rendering:optimizeQuality; fill-rule:evenodd; clip-rule:evenodd"
viewBox="0 0 24384 70810.74"
 xmlns:xlink="http://www.w3.org/1999/xlink"
 xmlns:xodm="http://www.corel.com/coreldraw/odm/2003">
 <defs>
  <style type="text/css">
   <![CDATA[
    .fil0 {fill:#228CE3;fill-rule:nonzero}
   ]]>
  </style>
 </defs>
 <g id="Capa_x0020_1">
  <metadata id="CorelCorpID_0Corel-Layer"/>
  <path class="fil0" d="M21406.27 2980.88c0,7.45 -6.09,13.59 -13.54,13.59 -7.59,0 -13.73,-6.14 -13.73,-13.59 0,-3.79 -1.64,-7.4 -4.12,-9.88 -2.49,-2.68 -6.09,-4.32 -9.94,-4.32l-20.33 0 0 73.05 21.51 0c10.73,0.33 20.85,4.97 27.92,12.23 7.45,7.45 12.23,17.72 12.23,29.29l0 13.07 0.19 0.99 0 30.41c0,11.38 -4.78,21.79 -12.42,29.24 -7.4,7.45 -17.85,12.23 -29.1,12.23l-20.33 0 0 11.57c0,7.78 -6.09,14.06 -13.68,14.06 -7.64,0 -13.73,-6.28 -13.73,-14.06l0 -11.57 -20.2 0c-11.2,0 -21.65,-4.78 -29.24,-12.23 -7.45,-7.45 -12.23,-17.86 -12.23,-29.24 0,-7.59 6.14,-13.73 13.73,-13.73 7.45,0 13.73,6.14 13.73,13.73 0,3.79 1.45,7.26 4.12,9.88 2.49,2.49 6.1,4.17 9.89,4.17l20.2 0 0 -72.76 -20.2 0 -1.31 -0.15c-10.73,-0.32 -20.66,-4.77 -27.93,-12.08 -7.45,-7.41 -12.23,-18 -12.23,-29.24l0 -44.66c0,-11.2 4.64,-21.65 12.23,-29.24 7.59,-7.45 18.04,-12.04 29.24,-12.04l20.2 0 0 -11.9c0,-7.64 6.09,-13.59 13.73,-13.59 7.59,0 13.68,5.95 13.68,13.59l0 11.9 20.33 0c11.25,0 21.7,4.59 29.1,12.04 7.64,7.59 12.23,18.04 12.23,29.24zm-75.34 -163.11c65.13,0 123.98,26.24 166.62,68.93 42.64,42.64 68.93,101.63 68.93,166.62 0,65.13 -26.29,123.94 -68.93,166.63 -42.64,42.45 -101.49,68.92 -166.62,68.92 -65,0 -123.85,-26.47 -166.49,-68.92 -42.64,-42.69 -69.06,-101.5 -69.06,-166.63 0,-64.99 26.42,-123.98 69.06,-166.62 42.64,-42.69 101.49,-68.93 166.49,-68.93zm0 -87.62c89.26,0 169.9,36.17 228.42,94.7l0 0.19 0.33 0.32c58.34,58.34 94.37,139.17 94.37,227.96 0,89.27 -36.17,169.91 -94.7,228.62l-0.51 0.14c-58.34,58.2 -138.84,94.37 -227.91,94.37 -89.13,0 -169.95,-36.17 -228.29,-94.51l-0.19 0 -0.33 -0.38c-58.19,-58.66 -94.23,-139.16 -94.23,-228.24 0,-89.12 36.22,-169.95 94.56,-228.28l0.19 -0.19 0.33 -0.33c58.52,-58.34 139.02,-94.37 227.96,-94.37zm196.37 126.8c-50.27,-50.09 -119.67,-81.35 -196.37,-81.35 -76.71,0 -146.15,31.26 -196.24,81.35 -50.23,50.41 -81.3,119.81 -81.3,196.37 0,76.85 31.07,146.1 81.3,196.19 50.09,50.42 119.53,81.35 196.24,81.35 76.7,0 146.1,-30.93 196.37,-81.35 50.09,-50.09 81.3,-119.34 81.3,-196.19 0,-76.56 -31.21,-145.96 -81.3,-196.37zm-49.1 49.05c-37.68,-37.67 -89.78,-60.96 -147.27,-60.96 -57.54,0 -109.6,23.29 -147.32,60.96 -37.68,37.87 -60.96,89.78 -60.96,147.32 0,57.36 23.28,109.6 60.96,147.09 37.72,37.86 89.78,61.01 147.32,61.01 57.49,0 109.59,-23.15 147.27,-61.01 37.67,-37.49 61,-89.73 61,-147.09 0,-57.54 -23.33,-109.45 -61,-147.32zm-161 60.68l-20.2 0c-3.79,0 -7.4,1.64 -9.89,4.32 -2.67,2.48 -4.31,6.09 -4.31,9.88l0 44.66c0,3.79 1.64,7.45 4.31,9.93 2.49,2.62 6.1,4.26 9.89,4.26l20.2 0 0 -73.05zm27.41 173.09l20.33 0c3.85,0 7.45,-1.68 9.94,-4.17 2.67,-2.62 4.12,-6.09 4.12,-9.88l0 -44.47c0,-3.98 -1.64,-7.26 -4.12,-9.93 -2.63,-2.49 -6.09,-4.31 -9.94,-4.31l-20.33 0 0 72.76z"/>
 </g>
</svg>
