<?xml version="1.0" encoding="UTF-8"?>
<!DOCTYPE svg PUBLIC "-//W3C//DTD SVG 1.1//EN" "http://www.w3.org/Graphics/SVG/1.1/DTD/svg11.dtd">
<!-- Creator: CorelDRAW 2020 (64-Bit) -->
<svg xmlns="http://www.w3.org/2000/svg" xml:space="preserve" width="243.84mm" height="708.107mm" version="1.1" style="shape-rendering:geometricPrecision; text-rendering:geometricPrecision; image-rendering:optimizeQuality; fill-rule:evenodd; clip-rule:evenodd"
viewBox="0 0 24384 70810.74"
 xmlns:xlink="http://www.w3.org/1999/xlink"
 xmlns:xodm="http://www.corel.com/coreldraw/odm/2003">
 <defs>
  <style type="text/css">
   <![CDATA[
    .fil0 {fill:#228CE3}
   ]]>
  </style>
 </defs>
 <g id="Capa_x0020_1">
  <metadata id="CorelCorpID_0Corel-Layer"/>
  <g id="_2197201126432">
   <path class="fil0" d="M8858.24 2752.71l493.99 1.08 -0.02 209.03c0,31.28 -6.75,28.1 -41.14,62.38 -43.59,43.45 -73.21,62.36 -90.46,110l-19.26 55.27c-1.05,10.08 -0.65,3.06 0.66,8.15 6.71,26 69.12,-7.65 88.32,-14.53 31.86,-11.41 38.41,-32.42 61.98,-51.05l-0.04 206.63 -494.03 0.12 0 -587.08zm383.27 416.91c4.57,-46.18 33.2,-66.68 54.75,-88.28 31.2,-31.27 196.25,-199.33 216.06,-212.94l28.74 27.63 -215.8 218.46c-31.21,29.65 -15.63,35.32 -83.75,55.13zm-385.2 199.52l475.88 0.07c64.82,0.05 49.29,13.72 49.32,-168.45 0.01,-132.42 -20.28,-71.26 118.18,-216.56l62.18 -63.09c10.36,-8.42 14.25,-10.78 16.95,-25.08 -8.22,-13.45 -52.01,-58.78 -67.13,-64.66 -25.39,10.4 -101.79,99.22 -129.22,122.18 -3.36,-39.52 -0.96,-87.98 -0.96,-128.49 -0.01,-22.37 -0.05,-44.7 0.24,-67.07 0.43,-32.65 1.2,-34.83 -32.87,-34.83l-492.57 0.03c-38.42,0.75 -27.46,21.18 -27.35,60.12 0.09,29.22 0.01,58.45 0.01,87.67l0 438.32c-0.07,38.92 -10.95,59.09 27.34,59.84z"/>
   <path class="fil0" d="M8973.19 2908.1l250.46 0.03 37.25 -2.34 1.74 -22.76 -34.72 -4.8 -246.38 0.9c-47.67,0 -46.82,28.66 -8.35,28.97z"/>
   <path class="fil0" d="M8948.32 3055.2c18.33,10.37 266.81,10.69 288.56,1.1l0.68 -20.13c-22.53,-9.68 -183,-4.58 -230.98,-4.67 -33.09,-0.07 -60.91,-10.06 -58.26,23.7z"/>
   <path class="fil0" d="M8946.96 3200.76c10.01,14.96 9.59,12.43 30.4,12.44 51.38,0.02 142.26,2.9 189.09,-2.5l0.89 -23.77c-46.79,-6.75 -128.88,-2.76 -181.63,-2.78 -20.41,0 -34.38,-4.2 -38.75,16.61z"/>
  </g>
 </g>
</svg>
