<?xml version="1.0" encoding="UTF-8"?>
<!DOCTYPE svg PUBLIC "-//W3C//DTD SVG 1.1//EN" "http://www.w3.org/Graphics/SVG/1.1/DTD/svg11.dtd">
<!-- Creator: CorelDRAW 2020 (64-Bit) -->
<svg xmlns="http://www.w3.org/2000/svg" xml:space="preserve" width="243.84mm" height="708.107mm" version="1.1" style="shape-rendering:geometricPrecision; text-rendering:geometricPrecision; image-rendering:optimizeQuality; fill-rule:evenodd; clip-rule:evenodd"
viewBox="0 0 24384 70810.74"
 xmlns:xlink="http://www.w3.org/1999/xlink"
 xmlns:xodm="http://www.corel.com/coreldraw/odm/2003">
 <defs>
  <style type="text/css">
   <![CDATA[
    .fil0 {fill:#228CE3}
   ]]>
  </style>
 </defs>
 <g id="Capa_x0020_1">
  <metadata id="CorelCorpID_0Corel-Layer"/>
  <path class="fil0" d="M15041.8 3376.59c2.03,-1.41 3.25,-2.83 5.12,-4.29l14.98 -11.95c6.86,-5.35 13.74,-10.09 20.84,-15.33 17.51,-12.91 35.67,-24.54 53.78,-36.6 1.93,-1.28 4.01,-2.11 5.01,-4.21 8.88,-18.64 18.12,-35.43 27.55,-53.62 9.04,-17.44 30.1,-53.06 40.02,-68.45 4.77,-7.4 9.13,-15 14.01,-22.15 2.48,-3.64 4.79,-7.34 7.12,-10.95 2.41,-3.74 4.88,-7.18 7.21,-10.86 6.96,-10.95 14.81,-21.53 21.96,-32.29 12.71,-19.12 39.23,-54.74 53.27,-72.9l15.74 -20.42c2.64,-3.54 5.29,-6.67 7.94,-10.14 17.15,-22.47 46.03,-57.2 65.37,-79.24l16.86 -19.31c0.72,-0.89 1.41,-1.39 2.15,-2.26l4.13 -4.73c3.15,-3.94 17.36,-18.91 21.7,-23.69l6.44 -6.84c0.82,-0.9 1.62,-1.44 2.46,-2.32l54.59 -53.9c0.87,-0.75 1.33,-1.46 2.19,-2.22 4.77,-4.17 9.73,-8.24 14.23,-12.71 6.14,-6.11 45.54,-38.28 49.68,-40.27 -0.48,-1.12 -14.75,-21.77 -16.78,-24.05 -0.4,-0.44 -0.22,-0.27 -0.63,-0.6 -4.72,1.97 -14.18,8.06 -19.06,10.98 -6.3,3.78 -12.11,7.39 -18.3,11.22 -34.27,21.14 -71.99,49.13 -103.09,74.37 -5.61,4.55 -10.82,8.77 -16.36,13.51l-15.97 13.56c-0.75,0.6 -1.19,1.14 -1.94,1.74l-17.69 15.53c-3.5,3.61 -8.13,7.12 -11.65,10.48 -0.85,0.81 -1.13,1.29 -2.01,2.04l-58.16 56.21c-8.79,9.03 -20.9,20.78 -29.12,30.29l-12.52 13.29 -83.03 98.49c-4.27,5.41 -8.53,11.26 -12.72,16.8 -4.3,5.69 -8.25,11.21 -12.51,17 -12.51,17.03 -24.47,34.76 -36.04,52.52l-22.81 36.22 -2.12 -4.15c-0.65,-1.5 -1.3,-2.88 -1.93,-4.35l-11.3 -25.23c-11.08,-24.81 -27.53,-56.88 -44.8,-77.32 -2.06,-2.43 -3.75,-4.38 -5.67,-6.51l-6.26 -5.91c-1.28,-1.09 -2.01,-1.8 -3.38,-2.89 -9.81,-7.81 -18.93,-11.22 -32.33,-9.88 -29.43,2.96 -55.03,21.88 -75.76,40.5 -4.78,4.3 -11.52,9.96 -15.18,14.97 0.81,0.62 7.39,3.08 8.97,3.78 3.06,1.35 5.84,2.78 8.57,4.35 5.79,3.3 10.42,6.74 15.08,10.36 2.53,1.96 4.71,3.85 6.88,6.04 2.21,2.23 4.17,3.79 6.35,6.19 3.99,4.38 8.18,8.88 11.8,13.66 13.95,18.41 26.4,40.28 37.91,63.92 17.27,35.45 39.92,87.94 53.01,125.19 2.03,5.77 4.97,13.3 6.2,19.33z"/>
 </g>
</svg>
