<?xml version="1.0" encoding="UTF-8"?>
<!DOCTYPE svg PUBLIC "-//W3C//DTD SVG 1.1//EN" "http://www.w3.org/Graphics/SVG/1.1/DTD/svg11.dtd">
<!-- Creator: CorelDRAW 2020 (64-Bit) -->
<svg xmlns="http://www.w3.org/2000/svg" xml:space="preserve" width="243.84mm" height="708.107mm" version="1.1" style="shape-rendering:geometricPrecision; text-rendering:geometricPrecision; image-rendering:optimizeQuality; fill-rule:evenodd; clip-rule:evenodd"
viewBox="0 0 24384 70810.74"
 xmlns:xlink="http://www.w3.org/1999/xlink"
 xmlns:xodm="http://www.corel.com/coreldraw/odm/2003">
 <defs>
  <style type="text/css">
   <![CDATA[
    .fil0 {fill:#228CE3}
   ]]>
  </style>
 </defs>
 <g id="Capa_x0020_1">
  <metadata id="CorelCorpID_0Corel-Layer"/>
  <path class="fil0" d="M3023.38 2822.85c90.04,-15.83 163.85,54.23 173.91,129.04 12.14,90.34 -53.71,162.2 -129.31,172.39 -91.84,12.39 -162.07,-51.73 -174.36,-128.36 -7.42,-46.23 9.57,-90.8 31.98,-117.45 23.07,-27.43 48.41,-46.94 97.78,-55.62zm22.99 567.04c12.72,-11.32 24.51,-24.02 36.32,-36.4 80.48,-84.39 163.43,-182.07 199.91,-299.72 52.64,-169.77 -76.35,-310.6 -236.23,-311.09 -159.03,-0.5 -288.97,141.95 -236.42,311.34 29.81,96.1 101.46,194.2 165.57,264.98 9.73,10.73 61.8,67.09 70.85,70.89z"/>
 </g>
</svg>
